<?xml version="1.0" standalone="no"?><!DOCTYPE svg PUBLIC "-//W3C//DTD SVG 1.1//EN" "http://www.w3.org/Graphics/SVG/1.1/DTD/svg11.dtd"><svg t="1587050994746" class="icon" viewBox="0 0 1024 1024" version="1.1" xmlns="http://www.w3.org/2000/svg" p-id="6189" xmlns:xlink="http://www.w3.org/1999/xlink" width="32" height="32"><defs><style type="text/css"></style></defs><path d="M512 1024C229.201583 1024 0 794.798417 0 512 0 229.201583 229.201583 0 512 0c282.798417 0 512 229.201583 512 512 0 282.798417-229.201583 512-512 512z m-122.881398-389.747509a58.348574 58.348574 0 1 0-82.491606 82.456667 58.348574 58.348574 0 0 0 82.491606-82.456667z m441.911833-441.282926l-0.209635 0.104817a224.938993 224.938993 0 0 0-318.087075 318.087076l-0.838543-0.279515c87.837314 87.872253 86.928893 232.276239-0.873481 320.078614a224.904054 224.904054 0 0 1-318.087076 0c175.639689 175.709567 460.464583 175.709567 636.139211 0 175.674628-175.639689 177.631227-462.316364 1.956599-637.990992z m-194.506892 193.912924a58.348574 58.348574 0 1 1 82.456667-82.491606 58.348574 58.348574 0 0 1-82.456667 82.491606z" p-id="6190" fill="#ff7e06"></path></svg>